<svg width="70" height="70" viewBox="0 0 70 70" fill="none" xmlns="http://www.w3.org/2000/svg">
<circle cx="35" cy="35" r="35" fill="#D31958"/>
<path d="M29.1334 33.5333C25.0833 33.5333 21.8 30.2501 21.8 26.2V20.3333C21.8 19.5235 22.4568 18.8667 23.2667 18.8667H24.7334C25.5433 18.8667 26.2 18.2099 26.2 17.4C26.2 16.5901 25.5433 15.9333 24.7334 15.9333H23.2667C20.8367 15.9333 18.8667 17.9034 18.8667 20.3333V26.2C18.8705 29.5634 20.5264 32.7105 23.296 34.6187C25.9451 36.9542 27.5241 40.2712 27.6667 43.8C27.6667 49.4702 32.2632 54.0667 37.9334 54.0667C43.6035 54.0667 48.2 49.4702 48.2 43.8V42.128C51.3372 41.3181 53.2237 38.1182 52.4138 34.981C51.6036 31.8438 48.4039 29.9573 45.2667 30.7672C42.1295 31.5774 40.2431 34.7771 41.053 37.9143C41.5865 39.9808 43.2002 41.5944 45.2667 42.128V43.8C45.2667 47.8501 41.9834 51.1334 37.9334 51.1334C33.8833 51.1334 30.6 47.8501 30.6 43.8C30.7499 40.2668 32.3401 36.9489 35 34.6187C37.7585 32.7038 39.403 29.5581 39.4 26.2V20.3333C39.4 17.9034 37.43 15.9333 35 15.9333H33.5334C32.7235 15.9333 32.0667 16.5901 32.0667 17.4C32.0667 18.2099 32.7235 18.8667 33.5334 18.8667H35C35.8099 18.8667 36.4667 19.5235 36.4667 20.3333V26.2C36.4667 30.2501 33.1834 33.5333 29.1334 33.5333ZM46.7334 39.4C45.1133 39.4 43.8 38.0868 43.8 36.4667C43.8 34.8466 45.1133 33.5333 46.7334 33.5333C48.3534 33.5333 49.6667 34.8466 49.6667 36.4667C49.6667 38.0868 48.3534 39.4 46.7334 39.4Z" fill="white"/>
</svg>
