<?xml version="1.0" encoding="UTF-8"?><svg xmlns="http://www.w3.org/2000/svg" viewBox="0 0 116.51 116.51"><defs><style>.d{fill:#fff;}</style></defs><g id="a"/><g id="b"><g id="c"><g><path class="d" d="M51.35,45.98c2.93,2.92,4.39,7.02,4.39,12.27s-1.46,9.33-4.39,12.2c-2.92,2.87-7.02,4.31-12.27,4.31h-4.34c-1.24,0-2.25-1.01-2.25-2.25v-28.67c0-1.24,1.01-2.25,2.25-2.25h4.34c5.25,0,9.35,1.46,12.27,4.39Z"/><path class="d" d="M84.37,0H32.15C14.4,0,0,14.39,0,32.14v52.23c0,17.75,14.4,32.14,32.15,32.14h52.22c17.75,0,32.14-14.39,32.14-32.14V32.14C116.51,14.39,102.12,0,84.37,0ZM39.97,86.79H20.84c-1.24,0-2.25-1-2.25-2.25V31.97c0-1.25,1.01-2.25,2.25-2.25h19.13c6.02,0,11.27,1.19,15.77,3.57,4.5,2.39,7.98,5.74,10.45,10.05,2.47,4.3,3.7,9.28,3.7,14.91s-1.23,10.55-3.7,14.88c-2.47,4.34-5.96,7.7-10.49,10.09-4.52,2.38-9.77,3.57-15.73,3.57Zm57.96-.98c0,.55-.44,.98-.98,.98h-25.61c-3.67,0-6.84-.53-9.52-1.59-1.15-.46-1.31-2.01-.34-2.78,2.79-2.21,5.09-4.91,6.88-8.05,.06-.09,.11-.18,.15-.27,1.27,.98,3.03,1.48,5.27,1.48h7.65c1.43,0,2.6-1.17,2.6-2.6v-7.41c0-1.43-1.17-2.6-2.6-2.6h-7.51c-.96,0-1.72-.79-1.64-1.75,.07-.97,.11-1.96,.11-2.97,0-1.26-.06-2.5-.18-3.71-.1-1.01,.74-1.84,1.75-1.77,.31,.03,.63,.04,.96,.04h6.51c1.43,0,2.6-1.17,2.6-2.6v-6.76c0-1.43-1.17-2.6-2.6-2.6h-6.51c-2.27,0-4.03,.52-5.24,1.55-.28,.23-.52,.49-.73,.77-.19-.36-.38-.72-.59-1.08-1.72-3-3.92-5.6-6.56-7.76-.94-.77-.79-2.26,.32-2.75,2.78-1.24,6.16-1.86,10.11-1.86h23.1c1.43,0,2.6,1.17,2.6,2.6v53.49Z"/></g></g></g></svg>