<?xml version="1.0" encoding="UTF-8"?><svg xmlns="http://www.w3.org/2000/svg" viewBox="0 0 416.46 84.42"><defs><style>.d{fill:#fff;}</style></defs><g id="a"/><g id="b"><g id="c"><g><g><path class="d" d="M54.96,5.29c6.65,3.53,11.8,8.48,15.45,14.85,3.65,6.37,5.47,13.73,5.47,22.07s-1.82,15.59-5.47,22.01c-3.65,6.42-8.82,11.39-15.51,14.91-6.7,3.53-14.45,5.29-23.27,5.29H3.33C1.49,84.42,0,82.93,0,81.09V3.33c0-1.84,1.49-3.33,3.33-3.33H31.63c8.9,0,16.67,1.76,23.33,5.29Zm-6.49,54.96c4.33-4.25,6.49-10.26,6.49-18.04s-2.16-13.83-6.49-18.16c-4.33-4.33-10.38-6.49-18.16-6.49h-6.41c-1.84,0-3.33,1.49-3.33,3.33V63.29c0,1.84,1.49,3.33,3.33,3.33h6.41c7.78,0,13.83-2.12,18.16-6.37Z"/><path class="d" d="M113.51,0h-34.17c-5.85,0-10.84,.92-14.96,2.75-1.64,.73-1.85,2.93-.47,4.07,3.91,3.19,7.15,7.04,9.71,11.49,.3,.52,.59,1.06,.86,1.59,.31-.42,.68-.8,1.08-1.13,1.8-1.53,4.39-2.29,7.76-2.29h9.63c2.11,0,3.84,1.73,3.84,3.84v9.99c0,2.11-1.73,3.84-3.84,3.84h-9.63c-.49,0-.96-.02-1.42-.05-1.5-.1-2.73,1.11-2.59,2.61,.18,1.79,.26,3.62,.26,5.5,0,1.49-.06,2.95-.17,4.39s1.01,2.59,2.44,2.59h11.1c2.11,0,3.84,1.73,3.84,3.84v10.96c0,2.11-1.73,3.84-3.84,3.84h-11.31c-3.33,0-5.92-.73-7.8-2.19-.07,.14-.14,.27-.22,.4-2.65,4.64-6.05,8.63-10.18,11.91-1.44,1.14-1.21,3.44,.5,4.11,3.96,1.57,8.66,2.35,14.08,2.35h37.88c.8,0,1.45-.64,1.45-1.45V3.85C117.36,1.73,115.63,0,113.51,0Z"/></g><g><path class="d" d="M138.27,59.84V23.67c0-.48,.39-.86,.86-.86h17.05c4.19,0,7.87,.78,11.04,2.33,3.18,1.55,5.66,3.73,7.44,6.55,1.79,2.81,2.68,6.17,2.68,10.07s-.89,7.21-2.68,10.04c-1.79,2.83-4.27,5.03-7.44,6.58s-6.86,2.33-11.04,2.33h-17.05c-.48,0-.86-.39-.86-.86Zm10.72-8.55c0,.48,.39,.86,.86,.86h5.91c2.17,0,4.05-.41,5.66-1.22,1.61-.81,2.86-2,3.76-3.57,.9-1.57,1.35-3.44,1.35-5.6s-.45-4.08-1.35-5.63c-.9-1.55-2.16-2.73-3.76-3.55-1.61-.81-3.49-1.22-5.66-1.22h-5.91c-.48,0-.86,.39-.86,.86v19.06Z"/><path class="d" d="M181.5,59.84v-27.61c0-.48,.39-.86,.86-.86h8.07c.48,0,.86,.39,.86,.86v7.69l-1.23-2.05c-.14-.24-.17-.54-.06-.8,.88-1.99,2.23-3.51,4.05-4.54,1.74-.98,3.81-1.53,6.21-1.63,.48-.02,.89,.38,.89,.86v8.37c-.47-.07-.88-.12-1.22-.14-.34-.02-.71-.03-1.11-.03-2.09,0-3.79,.57-5.09,1.71-1.3,1.14-1.95,2.99-1.95,5.55v12.62c0,.48-.39,.86-.86,.86h-8.56c-.48,0-.86-.39-.86-.86Z"/><path class="d" d="M216.81,61.18c-2.38,0-4.52-.47-6.41-1.41-1.89-.94-3.37-2.41-4.44-4.41-1.06-2-1.6-4.54-1.6-7.6v-15.54c0-.48,.39-.86,.86-.86h8.56c.48,0,.86,.39,.86,.86v13.86c0,2.27,.42,3.9,1.27,4.87,.85,.97,2.05,1.46,3.6,1.46,1.01,0,1.93-.23,2.76-.7,.83-.47,1.5-1.22,2-2.25,.5-1.03,.76-2.35,.76-3.98v-13.27c0-.48,.39-.86,.86-.86h8.56c.48,0,.86,.39,.86,.86v27.61c0,.48-.39,.86-.86,.86h-8.07c-.48,0-.86-.39-.86-.86v-5c0-.81,1.02-1.17,1.53-.54h.01c.22,.28,.26,.65,.1,.95-1,1.91-2.37,3.36-4.13,4.34-1.91,1.06-3.99,1.6-6.23,1.6Z"/><path class="d" d="M253.49,59.18c-2.6,0-4.99-.59-7.17-1.76-2.18-1.17-3.93-2.81-5.25-4.93-1.32-2.11-1.98-4.61-1.98-7.5s.66-5.39,1.98-7.5c1.32-2.11,3.07-3.74,5.25-4.9,2.18-1.15,4.57-1.73,7.17-1.73s4.62,.5,6.39,1.49c1.77,.99,3.11,2.54,4.03,4.63,.92,2.09,1.38,4.76,1.38,8.01s-.46,5.92-1.38,8.01c-.92,2.09-2.26,3.65-4.03,4.65-1.77,1.01-3.9,1.52-6.39,1.52Zm1.79,12.5c-2.81,0-5.49-.33-8.04-.97-2.25-.57-4.21-1.39-5.88-2.44-.37-.24-.49-.73-.29-1.12l2.92-5.63c.23-.45,.8-.61,1.22-.33,1.08,.72,2.35,1.3,3.81,1.75,1.82,.56,3.6,.84,5.33,.84,2.78,0,4.78-.6,6.01-1.81,1.23-1.21,1.84-2.97,1.84-5.28v-3.44s0-.04,0-.06l.54-8.17s0-.04,0-.06l-.05-8.25v-4.5c0-.48,.39-.86,.86-.86h8.07c.48,0,.86,.39,.86,.86v23.12c0,5.56-1.5,9.67-4.49,12.34-3,2.67-7.24,4.01-12.72,4.01Zm.65-20.68c1.23,0,2.32-.25,3.28-.76,.96-.5,1.71-1.21,2.27-2.11,.56-.9,.84-1.95,.84-3.14s-.28-2.24-.84-3.14c-.56-.9-1.32-1.6-2.27-2.08-.96-.49-2.05-.73-3.28-.73s-2.33,.24-3.3,.73-1.74,1.18-2.3,2.08c-.56,.9-.84,1.95-.84,3.14s.28,2.24,.84,3.14c.56,.9,1.33,1.61,2.3,2.11,.97,.51,2.08,.76,3.3,.76Z"/><path class="d" d="M277.58,59.84V23.67c0-.48,.39-.86,.86-.86h18.52c4.98,0,8.7,.91,11.15,2.73,2.45,1.82,3.68,4.21,3.68,7.17,0,1.95-.51,3.65-1.54,5.12s-2.47,2.62-4.33,3.46c-1.52,.69-3.27,1.1-5.25,1.23-.64,.04-1.11-.6-.86-1.2l.34-.82c.14-.33,.46-.54,.82-.54,2.42,.06,4.55,.46,6.39,1.21,1.98,.81,3.53,1.98,4.63,3.52,1.1,1.53,1.65,3.4,1.65,5.6,0,3.28-1.33,5.84-3.98,7.66-2.65,1.82-6.52,2.73-11.61,2.73h-19.6c-.48,0-.86-.39-.86-.86Zm10.61-7.74c0,.48,.39,.86,.86,.86h8.12c1.84,0,3.24-.32,4.19-.95,.96-.63,1.43-1.6,1.43-2.9s-.48-2.26-1.43-2.9c-.96-.63-2.35-.95-4.19-.95h-8.88c-.48,0-.86-.39-.86-.86v-5.69c0-.48,.39-.86,.86-.86h7.26c1.8,0,3.16-.31,4.06-.92,.9-.61,1.35-1.53,1.35-2.76s-.45-2.14-1.35-2.73c-.9-.6-2.26-.89-4.06-.89h-6.5c-.48,0-.86,.39-.86,.86v20.69Z"/><path class="d" d="M326.97,61.18c-2.35,0-4.33-.4-5.95-1.19-1.62-.79-2.86-1.88-3.71-3.25-.85-1.37-1.27-2.9-1.27-4.6,0-1.8,.46-3.36,1.38-4.68,.92-1.32,2.34-2.33,4.25-3.03,1.91-.7,4.38-1.06,7.42-1.06h6.07c.48,0,.86,.39,.86,.86v3.64c0,.48-.39,.86-.86,.86h-4.66c-1.66,0-2.82,.27-3.49,.81-.67,.54-1,1.26-1,2.17s.34,1.62,1.03,2.17c.68,.54,1.62,.81,2.81,.81,1.12,0,2.14-.28,3.06-.84,.46-.28,.86-.63,1.2-1.06,.42-.53,1.26-.35,1.5,.28l.64,1.72c.07,.18,.08,.38,.02,.56-.56,1.88-1.59,3.31-3.09,4.29-1.57,1.03-3.64,1.54-6.2,1.54Zm8.66-1.35v-4.39c0-.14-.03-.27-.1-.4l-.51-.98c-.06-.12-.1-.26-.1-.4v-9.86c0-1.62-.5-2.88-1.49-3.76-.99-.88-2.57-1.33-4.74-1.33-1.41,0-2.83,.23-4.28,.68-1.09,.34-2.07,.78-2.91,1.32-.43,.27-.99,.1-1.21-.35l-2.67-5.38c-.2-.4-.07-.9,.32-1.12,1.52-.88,3.29-1.59,5.31-2.1,2.33-.6,4.65-.89,6.96-.89,4.76,0,8.45,1.09,11.07,3.27,2.62,2.18,3.92,5.6,3.92,10.26v15.43c0,.48-.39,.86-.86,.86h-7.86c-.48,0-.86-.39-.86-.86Z"/><path class="d" d="M367.81,30.87c2.27,0,4.33,.46,6.17,1.38,1.84,.92,3.29,2.34,4.36,4.25,1.06,1.91,1.6,4.38,1.6,7.42v15.92c0,.48-.39,.86-.86,.86h-8.56c-.48,0-.86-.39-.86-.86v-14.24c0-2.09-.42-3.62-1.27-4.57-.85-.96-2.03-1.43-3.55-1.43-1.08,0-2.08,.24-2.98,.73-.9,.49-1.61,1.24-2.11,2.25-.51,1.01-.76,2.33-.76,3.95v13.32c0,.48-.39,.86-.86,.86h-8.56c-.48,0-.86-.39-.86-.86v-27.61c0-.48,.39-.86,.86-.86h8.07c.48,0,.86,.39,.86,.86v4.96c0,.82-1.04,1.18-1.54,.53h0c-.21-.27-.25-.66-.07-.96,1.09-1.88,2.53-3.31,4.32-4.28,1.95-1.06,4.15-1.6,6.6-1.6Z"/><path class="d" d="M383.38,59.84V21.4c0-.48,.39-.86,.86-.86h8.56c.48,0,.86,.39,.86,.86V59.84c0,.48-.39,.86-.86,.86h-8.56c-.48,0-.86-.39-.86-.86Zm8.6-6.73l.21-9.76c0-.23,.1-.44,.26-.6l11.46-11.15c.16-.16,.38-.24,.6-.24h9.8c.76,0,1.15,.91,.62,1.46l-11.81,12.2s-.05,.05-.08,.07l-5.17,4.16s-.05,.04-.07,.07l-4.34,4.42c-.55,.56-1.49,.16-1.48-.62Zm12.68,7.26l-8.3-10.39c-.25-.32-.25-.76,0-1.08l5.27-6.52c.35-.43,1.01-.43,1.35,0l13.28,16.92c.44,.57,.04,1.39-.68,1.39h-10.26c-.26,0-.51-.12-.67-.32Z"/></g></g></g></g></svg>