<?xml version="1.0" encoding="UTF-8"?><svg xmlns="http://www.w3.org/2000/svg" viewBox="0 0 116.51 116.51"><defs><style>.d{fill:#fff;}.e{fill:#009e93;}</style></defs><g id="a"/><g id="b"><g id="c"><g><rect class="e" width="116.51" height="116.51" rx="32.14" ry="32.14"/><g><path class="d" d="M55.74,33.29c4.5,2.39,7.98,5.73,10.45,10.04,2.47,4.31,3.7,9.28,3.7,14.92s-1.23,10.54-3.7,14.88c-2.47,4.34-5.96,7.7-10.49,10.08-4.53,2.39-9.77,3.58-15.73,3.58H20.83c-1.24,0-2.25-1.01-2.25-2.25V31.97c0-1.24,1.01-2.25,2.25-2.25h19.13c6.02,0,11.27,1.19,15.77,3.58Zm-4.39,37.16c2.93-2.87,4.39-6.94,4.39-12.2s-1.46-9.35-4.39-12.28c-2.93-2.93-7.02-4.39-12.28-4.39h-4.33c-1.24,0-2.25,1.01-2.25,2.25v28.67c0,1.24,1.01,2.25,2.25,2.25h4.33c5.26,0,9.35-1.44,12.28-4.31Z"/><path class="d" d="M95.33,29.72h-23.1c-3.95,0-7.33,.62-10.12,1.86-1.11,.49-1.25,1.98-.32,2.75,2.64,2.16,4.84,4.76,6.56,7.77,.2,.35,.4,.71,.58,1.08,.21-.28,.46-.54,.73-.77,1.22-1.03,2.97-1.55,5.25-1.55h6.51c1.43,0,2.6,1.17,2.6,2.6v6.76c0,1.43-1.17,2.6-2.6,2.6h-6.51c-.33,0-.65-.01-.96-.03-1.01-.07-1.85,.75-1.75,1.76,.12,1.21,.18,2.45,.18,3.72,0,1.01-.04,1.99-.12,2.97s.69,1.75,1.65,1.75h7.51c1.43,0,2.6,1.17,2.6,2.6v7.41c0,1.43-1.17,2.6-2.6,2.6h-7.64c-2.25,0-4-.49-5.27-1.48-.04,.1-.1,.19-.15,.27-1.79,3.14-4.09,5.84-6.88,8.05-.97,.77-.82,2.32,.34,2.78,2.68,1.06,5.85,1.59,9.52,1.59h25.61c.54,0,.98-.43,.98-.98V32.32c0-1.43-1.17-2.6-2.6-2.6Z"/></g></g></g></g></svg>