<svg width="70" height="70" viewBox="0 0 70 70" fill="none" xmlns="http://www.w3.org/2000/svg">
<circle cx="35" cy="35" r="35" fill="#051A2E"/>
<g clip-path="url(#clip0_114_270)">
<path d="M52.8239 35.0005C52.8239 35.5749 52.7967 36.143 52.7435 36.7035C51.8254 35.7849 50.7505 35.0231 49.5623 34.4617C49.2789 26.6633 42.8676 20.4282 34.9998 20.4282C26.9518 20.4282 20.4276 26.9524 20.4276 35.0005C20.4276 42.8682 26.6627 49.2795 34.4611 49.5629C35.0225 50.7511 35.7843 51.8261 36.7029 52.7442C36.1424 52.7973 35.5743 52.8245 34.9998 52.8245C25.1559 52.8245 17.1758 44.8444 17.1758 35.0005C17.1758 25.1565 25.1559 17.1764 34.9998 17.1764C44.8438 17.1764 52.8239 25.1565 52.8239 35.0005Z" fill="white"/>
<path d="M36.6206 34.8079L37.9859 35.5962C37.0819 36.2646 36.2807 37.0643 35.6105 37.9668L34.2183 37.163C33.9368 37.0004 33.7226 36.7663 33.5852 36.4968C33.3799 36.1791 33.3799 35.7566 33.3799 35.7566V25.2782C33.3799 24.3833 34.1053 23.6578 35.0003 23.6578C35.8952 23.6578 36.6206 24.3833 36.6206 25.2782V34.8079Z" fill="white"/>
<path d="M40.3359 44.2481C40.9686 43.6153 41.9947 43.6153 42.6274 44.2481L43.6662 45.2869L46.7435 42.2097C47.3764 41.5769 48.4023 41.5769 49.035 42.2097C49.6679 42.8426 49.6679 43.8684 49.035 44.5014L44.9189 48.6174C44.7789 48.7574 44.6198 48.8665 44.4499 48.9444C43.8293 49.3074 43.0189 49.2228 42.4868 48.6905L40.3359 46.5396C39.7031 45.9069 39.7031 44.8809 40.3359 44.2481Z" fill="white"/>
<path fill-rule="evenodd" clip-rule="evenodd" d="M44.7222 54.4449C50.0916 54.4449 54.4444 50.0921 54.4444 44.7227C54.4444 39.3533 50.0916 35.0005 44.7222 35.0005C39.3528 35.0005 35 39.3533 35 44.7227C35 50.0921 39.3528 54.4449 44.7222 54.4449ZM44.7222 51.2335C41.1265 51.2335 38.2114 48.3185 38.2114 44.7227C38.2114 41.1269 41.1265 38.2119 44.7222 38.2119C48.318 38.2119 51.233 41.1269 51.233 44.7227C51.233 48.3185 48.318 51.2335 44.7222 51.2335Z" fill="white"/>
</g>
<defs>
<clipPath id="clip0_114_270">
<rect width="38.8889" height="38.8889" fill="white" transform="translate(15.5557 15.556)"/>
</clipPath>
</defs>
</svg>
