<svg width="70" height="70" viewBox="0 0 70 70" fill="none" xmlns="http://www.w3.org/2000/svg">
<circle cx="35" cy="35" r="35" fill="#051A2E"/>
<g clip-path="url(#clip0_114_290)">
<path fill-rule="evenodd" clip-rule="evenodd" d="M38.6668 24H31.3335C30.8473 24 30.381 24.1932 30.0371 24.537C29.6933 24.8808 29.5002 25.3471 29.5002 25.8334V44.1667C29.5002 44.6529 29.6933 45.1193 30.0371 45.4631C30.381 45.8069 30.8473 46 31.3335 46H38.6668C39.1531 46 39.6194 45.8069 39.9632 45.4631C40.307 45.1193 40.5002 44.6529 40.5002 44.1667V25.8334C40.5002 25.3471 40.307 24.8808 39.9632 24.537C39.6194 24.1932 39.1531 24 38.6668 24ZM31.3335 20.3334C29.8748 20.3334 28.4759 20.9128 27.4444 21.9443C26.413 22.9757 25.8335 24.3747 25.8335 25.8334V44.1667C25.8335 45.6254 26.413 47.0243 27.4444 48.0558C28.4759 49.0872 29.8748 49.6667 31.3335 49.6667H38.6668C40.1255 49.6667 41.5245 49.0872 42.5559 48.0558C43.5874 47.0243 44.1668 45.6254 44.1668 44.1667V25.8334C44.1668 24.3747 43.5874 22.9757 42.5559 21.9443C41.5245 20.9128 40.1255 20.3334 38.6668 20.3334H31.3335Z" fill="white"/>
<path d="M24 26.6767L19.4038 25.9103C18.6161 25.7791 17.8093 25.821 17.0394 26.0331C16.2695 26.2451 15.5551 26.6223 14.9456 27.1384C14.3362 27.6544 13.8465 28.297 13.5105 29.0214C13.1745 29.7459 13.0003 30.5348 13 31.3333V40.3478C12.9998 41.1467 13.1736 41.936 13.5094 42.6609C13.8451 43.3858 14.3348 44.0288 14.9442 44.5453C15.5537 45.0618 16.2684 45.4393 17.0385 45.6516C17.8087 45.8638 18.6158 45.9058 19.4038 45.7745L24 45.0063V41.2902L18.8007 42.1555C18.5383 42.1991 18.2696 42.1851 18.0132 42.1145C17.7567 42.0439 17.5187 41.9183 17.3157 41.7465C17.1127 41.5747 16.9495 41.3608 16.8374 41.1196C16.7253 40.8784 16.6671 40.6156 16.6667 40.3497V31.3352C16.6665 31.0689 16.7244 30.8058 16.8362 30.5641C16.9481 30.3225 17.1112 30.1081 17.3143 29.9359C17.5174 29.7637 17.7556 29.6378 18.0123 29.5669C18.269 29.4961 18.538 29.482 18.8007 29.5257L24 30.3928V26.6767ZM46 26.6767L50.5962 25.9103C51.3839 25.7791 52.1907 25.821 52.9606 26.0331C53.7305 26.2451 54.4449 26.6223 55.0544 27.1384C55.6638 27.6544 56.1535 28.297 56.4895 29.0214C56.8255 29.7459 56.9997 30.5348 57 31.3333V40.3478C57.0002 41.1467 56.8264 41.936 56.4906 42.6609C56.1549 43.3858 55.6652 44.0288 55.0558 44.5453C54.4463 45.0618 53.7316 45.4393 52.9615 45.6516C52.1913 45.8638 51.3842 45.9058 50.5962 45.7745L46 45.0063V41.2902L51.1993 42.1555C51.4617 42.1991 51.7304 42.1851 51.9868 42.1145C52.2433 42.0439 52.4813 41.9183 52.6843 41.7465C52.8873 41.5747 53.0505 41.3608 53.1626 41.1196C53.2747 40.8784 53.3329 40.6156 53.3333 40.3497V31.3352C53.3335 31.0689 53.2756 30.8058 53.1638 30.5641C53.0519 30.3225 52.8888 30.1081 52.6857 29.9359C52.4826 29.7637 52.2444 29.6378 51.9877 29.5669C51.731 29.4961 51.462 29.482 51.1993 29.5257L46 30.3928V26.6767Z" fill="white"/>
</g>
<defs>
<clipPath id="clip0_114_290">
<rect width="44" height="44" fill="white" transform="translate(13 13)"/>
</clipPath>
</defs>
</svg>
